<svg width="59.000000" height="25.625000" viewBox="0 0 59 25.625" fill="none" xmlns="http://www.w3.org/2000/svg" xmlns:xlink="http://www.w3.org/1999/xlink">
	<desc>
			Created with Pixso.
	</desc>
	<defs>
		<clipPath id="clip2_17">
			<rect id="Frame" rx="0.000000" width="19.000000" height="21.000000" transform="translate(12.500000 0.812500)" fill="white" fill-opacity="0"/>
		</clipPath>
	</defs>
	<rect id="Frame" rx="0.000000" width="19.000000" height="21.000000" transform="translate(12.500000 0.812500)" fill="#FFFFFF" fill-opacity="0"/>
	<g clip-path="url(#clip2_17)">
		<path id="Vector" d="M31.72 19.45L30 4.71L26.81 4.71C26.43 2.45 24.43 0.75 22 0.75C19.56 0.75 17.56 2.45 17.18 4.71L14 4.71L12.27 19.45C12.16 20.27 12.48 20.77 12.75 21.1C13.02 21.37 13.51 21.76 14.43 21.76L29.56 21.76C30.27 21.76 30.86 21.54 31.24 21.04C31.62 20.66 31.78 20.05 31.72 19.45ZM22 2.95C23.18 2.95 24.21 3.72 24.54 4.71L19.4 4.71C19.78 3.66 20.81 2.95 22 2.95ZM14.43 19.56L15.94 6.91L17.13 6.91L17.13 8.56C17.13 9.16 17.62 9.66 18.21 9.66C18.81 9.66 19.29 9.16 19.29 8.56L19.29 6.91L24.7 6.91L24.7 8.56C24.7 9.16 25.18 9.66 25.78 9.66C26.37 9.66 26.86 9.16 26.86 8.56L26.86 6.91L28.05 6.91L29.56 19.56L14.43 19.56Z" fill="#000000" fill-opacity="1.000000" fill-rule="nonzero"/>
	</g>
	<path id="0" d="M43.76 16.3Q44.57 15.14 44.57 12.76L44.57 11Q44.55 8.7 43.73 7.6Q43.54 7.34 43.3 7.14Q42.52 6.5 41.2 6.5Q39.91 6.5 39.13 7.13Q38.86 7.35 38.65 7.64Q37.84 8.78 37.84 11.13L37.84 12.94Q37.87 15.19 38.69 16.32Q38.91 16.63 39.19 16.85Q39.96 17.45 41.21 17.45Q42.47 17.45 43.24 16.84Q43.53 16.61 43.76 16.3ZM42.73 8.4Q43.21 9.18 43.21 10.91L43.21 13.13Q43.19 14.8 42.7 15.57Q42.51 15.89 42.23 16.07Q41.81 16.35 41.21 16.35Q40.65 16.35 40.24 16.09Q39.92 15.89 39.69 15.52Q39.19 14.7 39.19 12.97L39.19 10.8Q39.21 9.18 39.68 8.39Q39.86 8.1 40.11 7.92Q40.54 7.61 41.2 7.61Q41.86 7.61 42.29 7.92Q42.55 8.11 42.73 8.4Z" fill="#B4604D" fill-opacity="1.000000" fill-rule="evenodd"/>
</svg>
